<svg width="20" height="20" viewBox="0 0 20 20" fill="none" xmlns="http://www.w3.org/2000/svg">
<path fill-rule="evenodd" clip-rule="evenodd" d="M9.16675 3.33334C5.94509 3.33334 3.33341 5.94501 3.33341 9.16667C3.33341 12.3883 5.94509 15 9.16675 15C12.3884 15 15.0001 12.3883 15.0001 9.16667C15.0001 5.94501 12.3884 3.33334 9.16675 3.33334ZM1.66675 9.16667C1.66675 5.02454 5.02461 1.66667 9.16675 1.66667C13.3089 1.66667 16.6667 5.02454 16.6667 9.16667C16.6667 13.3088 13.3089 16.6667 9.16675 16.6667C5.02461 16.6667 1.66675 13.3088 1.66675 9.16667Z" fill="#A9A9A9"/>
<path fill-rule="evenodd" clip-rule="evenodd" d="M13.5776 13.5774C13.903 13.252 14.4306 13.252 14.7561 13.5774L18.0894 16.9108C18.4149 17.2362 18.4149 17.7638 18.0894 18.0893C17.764 18.4147 17.2363 18.4147 16.9109 18.0893L13.5776 14.7559C13.2521 14.4305 13.2521 13.9029 13.5776 13.5774Z" fill="#A9A9A9"/>
</svg>
