<svg width="82" height="74" viewBox="0 0 82 74" fill="none" xmlns="http://www.w3.org/2000/svg">
<path fill-rule="evenodd" clip-rule="evenodd" d="M49.3144 30.5997C49.2956 29.1736 49.1167 27.7353 48.7589 26.2871C47.5042 21.2051 41.9064 17.9424 35.9484 17.1753C29.9927 16.4082 23.7993 18.1538 21.4123 22.5745C20.047 25.102 19.8587 27.2804 20.4166 29.1171C20.9721 30.9439 22.2903 32.4584 24.0793 33.6385C29.0675 36.9258 37.8034 37.597 41.7887 36.2226C43.6319 35.5858 45.4327 34.8188 47.1864 33.941C46.1836 39.6869 42.4477 45.1304 37.4619 50.0355C26.6264 60.6963 9.81169 68.7877 0.654562 71.7627C0.162573 71.9225 -0.110516 72.4684 0.0424948 72.9822C0.195506 73.4961 0.718088 73.7838 1.21008 73.624C10.5485 70.59 27.6905 62.3264 38.7402 51.4541C44.4487 45.8385 48.5164 39.5173 49.2109 32.8715C62.1156 25.67 72.7134 12.6046 81.774 1.60946C82.1106 1.20378 82.0659 0.586634 81.6751 0.235044C81.2844 -0.114088 80.6958 -0.0698511 80.3592 0.338289C71.6681 10.8835 61.5812 23.4277 49.3144 30.5997ZM47.4383 31.6446C47.509 30.0415 47.3582 28.4139 46.951 26.7715C45.8658 22.3729 40.8776 19.7717 35.72 19.1078C32.5585 18.7021 29.3077 19.0365 26.7583 20.2265C25.1552 20.974 23.8345 22.0582 23.0389 23.5334C21.9937 25.4684 21.7677 27.1231 22.1961 28.527C22.6245 29.9407 23.6887 31.0766 25.0752 31.9888C29.6208 34.9859 37.575 35.6227 41.2025 34.3713C43.3423 33.6337 45.4186 32.7141 47.4383 31.6446Z" fill="#011625"/>
</svg>
