<svg width="23" height="25" viewBox="0 0 23 25" fill="none" xmlns="http://www.w3.org/2000/svg">
<path fill-rule="evenodd" clip-rule="evenodd" d="M2.77486 11.1714C3.84563 10.7699 4.97242 10.2362 5.84135 9.4636C6.87335 8.54591 7.29305 7.364 7.57489 6.1199C7.93674 4.52155 8.08133 2.81891 8.52009 1.21796C8.68256 0.623434 8.9952 0.398701 9.12936 0.298966C9.46843 0.0470374 9.81118 -0.020303 10.1336 0.00495465C10.5158 0.0340981 11.0407 0.186281 11.386 0.860466C11.4352 0.956963 11.4992 1.10398 11.5423 1.3054C11.5736 1.45306 11.5939 1.91481 11.6272 2.10521C11.7103 2.5741 11.7798 3.043 11.845 3.51447C12.0623 5.08369 12.1872 6.41649 12.8733 7.85812C13.8044 9.81526 14.7374 11.0127 16.0026 11.5431C17.226 12.0561 18.6887 11.9596 20.5577 11.5574C20.7355 11.5121 20.9115 11.4732 21.0856 11.4415C21.9096 11.2899 22.6973 11.8592 22.8592 12.7231C23.021 13.5864 22.4974 14.4277 21.6807 14.6175C21.5103 14.657 21.3423 14.6945 21.1761 14.7289C18.6506 15.3868 15.7269 17.7352 14.0278 19.7914C13.5041 20.4254 12.7373 22.198 11.9552 23.3287C11.378 24.1629 10.7293 24.7127 10.1847 24.907C9.8198 25.0379 9.51212 25.0178 9.25796 24.9517C8.88873 24.8559 8.58228 24.6454 8.34721 24.3106C8.21921 24.1273 8.10041 23.8818 8.04379 23.5684C8.01672 23.4175 8.01366 23.0341 8.01427 22.8605C7.85489 22.2835 7.65981 21.72 7.51765 21.1378C7.17858 19.7486 6.51334 18.8692 5.72318 17.7073C4.9841 16.6199 4.19028 15.9367 3.02659 15.3914C2.87521 15.3525 1.65366 15.0378 1.22228 14.8571C0.592126 14.5922 0.291802 14.1486 0.182879 13.9096C-0.00235185 13.5042 -0.021412 13.1499 0.0155111 12.8546C0.0702804 12.4188 0.256128 12.0457 0.585974 11.7446C0.790282 11.5574 1.09552 11.3754 1.50413 11.2867C1.81982 11.2174 2.65733 11.1773 2.77486 11.1714ZM9.94103 8.90728C9.99765 9.04005 10.058 9.17347 10.122 9.30818C11.4857 12.1746 13.0106 13.7749 14.8641 14.5514L14.9263 14.5767C13.6863 15.5455 12.5638 16.6284 11.7059 17.6665C11.3527 18.094 10.885 18.9819 10.3798 19.8924C9.92073 18.3219 9.16996 17.2119 8.22596 15.8227C7.50473 14.7625 6.74904 13.9647 5.82042 13.3145C6.54104 12.9252 7.22842 12.4693 7.82719 11.9369C8.82411 11.0503 9.48318 10.0232 9.94103 8.90728Z" fill="#417BA4"/>
</svg>
